# Blender v2.78 (sub 0) OBJ File: 'objects.blend'
# www.blender.org
o NurbsPath_Mesh.058
v -5.000000 1.165781 0.000000
v -5.000000 0.566813 0.000001
v -5.000000 0.017132 0.000019
v -5.000000 -0.486648 0.000098
v -5.000000 -0.947788 0.000310
v -5.000000 -1.369426 0.000757
v -5.000000 -1.754566 0.001569
v -5.000000 -2.106090 0.002907
v -5.000000 -2.426751 0.004959
v -5.000000 -2.719176 0.007943
v -5.000000 -2.985865 0.012107
v -5.000000 -3.229188 0.017726
v -5.000000 -3.451393 0.025105
v -5.000000 -3.654596 0.034579
v -5.000000 -3.840789 0.046510
v -5.000000 -4.011837 0.061291
v -5.000000 -4.169475 0.079344
v -5.000000 -4.315315 0.101118
v -5.000000 -4.450839 0.127094
v -5.000000 -4.577403 0.157779
v -5.000000 -4.696236 0.193711
v -5.000000 -4.808440 0.235457
v -5.000000 -4.914989 0.283613
v -5.000000 -5.016732 0.338802
v -5.000000 -5.114388 0.401680
v -5.000000 -5.208552 0.472928
v -5.000000 -5.299690 0.553259
v -5.000000 -5.388142 0.643413
v -5.000000 -5.474119 0.744161
v -5.000000 -5.557709 0.856302
v -5.000000 -5.638868 0.980662
v -5.000000 -5.717458 1.118053
v -5.000000 -5.793325 1.269128
v -5.000000 -5.866333 1.434336
v -5.000000 -5.936356 1.613925
v -5.000000 -6.003290 1.807938
v -5.000000 -6.067040 2.016216
v -5.000000 -6.127532 2.238395
v -5.000000 -6.184703 2.473908
v -5.000000 -6.238508 2.721986
v -5.000000 -6.288916 2.981655
v -5.000000 -6.335911 3.251739
v -5.000000 -6.379495 3.530857
v -5.000000 -6.419681 3.817425
v -5.000000 -6.456501 4.109658
v -5.000000 -6.490000 4.405563
v -5.000000 -6.520241 4.702948
v -5.000000 -6.547300 4.999415
v -5.000000 -6.571269 5.292364
v -5.000000 -6.592255 5.578990
v -5.000000 -6.610381 5.856288
v -5.000000 -6.625786 6.121044
v -5.000000 -6.638622 6.369845
v -5.000000 -6.649058 6.599074
v -5.000000 -6.657279 6.804911
v -5.000000 -6.663484 6.983328
v -5.000000 -6.667888 7.130103
v -5.000000 -6.670721 7.240799
v -5.000000 -6.672227 7.310784
v -5.000000 -6.672669 7.335220
v 5.000000 1.165781 0.000000
v 5.000000 0.566813 0.000001
v 5.000000 0.017132 0.000019
v 5.000000 -0.486649 0.000098
v 5.000000 -0.947789 0.000310
v 5.000000 -1.369426 0.000757
v 5.000000 -1.754566 0.001569
v 5.000000 -2.106090 0.002907
v 5.000000 -2.426752 0.004959
v 5.000000 -2.719177 0.007943
v 5.000000 -2.985866 0.012107
v 5.000000 -3.229188 0.017726
v 5.000000 -3.451394 0.025105
v 5.000000 -3.654596 0.034579
v 5.000000 -3.840790 0.046510
v 5.000000 -4.011837 0.061291
v 5.000000 -4.169476 0.079344
v 5.000000 -4.315315 0.101118
v 5.000000 -4.450840 0.127094
v 5.000000 -4.577404 0.157779
v 5.000000 -4.696237 0.193711
v 5.000000 -4.808440 0.235457
v 5.000000 -4.914989 0.283613
v 5.000000 -5.016732 0.338802
v 5.000000 -5.114388 0.401680
v 5.000000 -5.208552 0.472928
v 5.000000 -5.299690 0.553259
v 5.000000 -5.388142 0.643413
v 5.000000 -5.474120 0.744161
v 5.000000 -5.557709 0.856302
v 5.000000 -5.638868 0.980662
v 5.000000 -5.717458 1.118053
v 5.000000 -5.793326 1.269128
v 5.000000 -5.866333 1.434336
v 5.000000 -5.936357 1.613925
v 5.000000 -6.003290 1.807938
v 5.000000 -6.067041 2.016216
v 5.000000 -6.127533 2.238395
v 5.000000 -6.184704 2.473908
v 5.000000 -6.238509 2.721986
v 5.000000 -6.288917 2.981655
v 5.000000 -6.335912 3.251739
v 5.000000 -6.379495 3.530857
v 5.000000 -6.419681 3.817425
v 5.000000 -6.456501 4.109658
v 5.000000 -6.490001 4.405563
v 5.000000 -6.520242 4.702948
v 5.000000 -6.547300 4.999415
v 5.000000 -6.571269 5.292364
v 5.000000 -6.592255 5.578990
v 5.000000 -6.610382 5.856288
v 5.000000 -6.625786 6.121044
v 5.000000 -6.638622 6.369845
v 5.000000 -6.649059 6.599074
v 5.000000 -6.657280 6.804911
v 5.000000 -6.663485 6.983328
v 5.000000 -6.667889 7.130103
v 5.000000 -6.670721 7.240799
v 5.000000 -6.672228 7.310784
v 5.000000 -6.672669 7.335220
vn 0.0000 0.9866 0.1628
vn 0.0000 0.9835 0.1810
vn 0.0000 0.0999 0.9950
vn 0.0000 0.0750 0.9972
vn 0.0000 0.9892 0.1466
vn 0.0000 0.1307 0.9914
vn 0.0000 0.9912 0.1319
vn 0.0000 0.9892 0.1465
vn 0.0000 0.1680 0.9858
vn 0.0000 0.9929 0.1187
vn 0.0000 0.2120 0.9773
vn 0.0000 0.9943 0.1068
vn 0.0000 0.2626 0.9649
vn 0.0000 0.9954 0.0960
vn 0.0000 0.3192 0.9477
vn 0.0000 0.9962 0.0862
vn 0.0000 0.3805 0.9248
vn 0.0000 0.9970 0.0773
vn 0.0000 0.4446 0.8957
vn 0.0000 0.9976 0.0691
vn 0.0000 0.5094 0.8605
vn 0.0000 0.9981 0.0616
vn 0.0000 0.5728 0.8197
vn 0.0000 0.9985 0.0548
vn 0.0000 0.6327 0.7743
vn 0.0000 0.9988 0.0485
vn 0.0000 0.6879 0.7257
vn 0.0000 0.9991 0.0427
vn 0.0000 0.7377 0.6751
vn 0.0000 0.0000 1.0000
vn 0.0000 0.9993 0.0373
vn 0.0000 0.7816 0.6237
vn 0.0000 0.0001 1.0000
vn 0.0000 0.9995 0.0323
vn 0.0000 0.8200 0.5723
vn 0.0000 0.0003 1.0000
vn 0.0000 0.9996 0.0278
vn 0.0000 0.8531 0.5217
vn 0.0000 0.0007 1.0000
vn 0.0000 0.9997 0.0235
vn 0.0000 0.8811 0.4728
vn 0.0000 0.0016 1.0000
vn 0.0000 0.9998 0.0197
vn 0.0000 0.9997 0.0236
vn 0.0000 0.9044 0.4266
vn 0.0000 0.0029 1.0000
vn 0.0000 0.9998 0.0180
vn 0.0000 0.9998 0.0198
vn 0.0000 0.9234 0.3838
vn 0.0000 0.0051 1.0000
vn 0.0000 0.9387 0.3447
vn 0.0000 0.0083 0.9999
vn 0.0000 0.9509 0.3094
vn 0.0000 0.9387 0.3448
vn 0.0000 0.0129 0.9999
vn 0.0000 0.9606 0.2777
vn 0.0000 0.0193 0.9998
vn 0.0000 0.9684 0.2493
vn 0.0000 0.0281 0.9996
vn 0.0000 0.9746 0.2239
vn 0.0000 0.0399 0.9992
vn 0.0000 0.9795 0.2013
vn 0.0000 0.0552 0.9984
vn 0.0000 0.9998 0.0181
s 1
f 42//1 101//2 41//2
f 16//3 75//4 15//4
f 43//5 102//1 42//1
f 17//6 76//3 16//3
f 44//7 103//8 43//5
f 18//9 77//6 17//6
f 45//10 104//7 44//7
f 19//11 78//9 18//9
f 46//12 105//10 45//10
f 20//13 79//11 19//11
f 47//14 106//12 46//12
f 21//15 80//13 20//13
f 48//16 107//14 47//14
f 22//17 81//15 21//15
f 49//18 108//16 48//16
f 23//19 82//17 22//17
f 50//20 109//18 49//18
f 24//21 83//19 23//19
f 51//22 110//20 50//20
f 25//23 84//21 24//21
f 52//24 111//22 51//22
f 26//25 85//23 25//23
f 53//26 112//24 52//24
f 27//27 86//25 26//25
f 54//28 113//26 53//26
f 28//29 87//27 27//27
f 2//30 61//30 1//30
f 55//31 114//28 54//28
f 29//32 88//29 28//29
f 3//33 62//30 2//30
f 56//34 115//31 55//31
f 30//35 89//32 29//32
f 4//36 63//33 3//33
f 57//37 116//34 56//34
f 31//38 90//35 30//35
f 5//39 64//36 4//36
f 58//40 117//37 57//37
f 32//41 91//38 31//38
f 6//42 65//39 5//39
f 59//43 118//44 58//40
f 33//45 92//41 32//41
f 7//46 66//42 6//42
f 60//47 119//48 59//43
f 34//49 93//45 33//45
f 8//50 67//46 7//46
f 35//51 94//49 34//49
f 9//52 68//50 8//50
f 36//53 95//54 35//51
f 10//55 69//52 9//52
f 37//56 96//53 36//53
f 11//57 70//55 10//55
f 38//58 97//56 37//56
f 12//59 71//57 11//57
f 39//60 98//58 38//58
f 13//61 72//59 12//59
f 40//62 99//60 39//60
f 14//63 73//61 13//61
f 41//2 100//62 40//62
f 15//4 74//63 14//63
f 42//1 102//1 101//2
f 16//3 76//3 75//4
f 43//5 103//8 102//1
f 17//6 77//6 76//3
f 44//7 104//7 103//8
f 18//9 78//9 77//6
f 45//10 105//10 104//7
f 19//11 79//11 78//9
f 46//12 106//12 105//10
f 20//13 80//13 79//11
f 47//14 107//14 106//12
f 21//15 81//15 80//13
f 48//16 108//16 107//14
f 22//17 82//17 81//15
f 49//18 109//18 108//16
f 23//19 83//19 82//17
f 50//20 110//20 109//18
f 24//21 84//21 83//19
f 51//22 111//22 110//20
f 25//23 85//23 84//21
f 52//24 112//24 111//22
f 26//25 86//25 85//23
f 53//26 113//26 112//24
f 27//27 87//27 86//25
f 54//28 114//28 113//26
f 28//29 88//29 87//27
f 2//30 62//30 61//30
f 55//31 115//31 114//28
f 29//32 89//32 88//29
f 3//33 63//33 62//30
f 56//34 116//34 115//31
f 30//35 90//35 89//32
f 4//36 64//36 63//33
f 57//37 117//37 116//34
f 31//38 91//38 90//35
f 5//39 65//39 64//36
f 58//40 118//44 117//37
f 32//41 92//41 91//38
f 6//42 66//42 65//39
f 59//43 119//48 118//44
f 33//45 93//45 92//41
f 7//46 67//46 66//42
f 60//47 120//64 119//48
f 34//49 94//49 93//45
f 8//50 68//50 67//46
f 35//51 95//54 94//49
f 9//52 69//52 68//50
f 36//53 96//53 95//54
f 10//55 70//55 69//52
f 37//56 97//56 96//53
f 11//57 71//57 70//55
f 38//58 98//58 97//56
f 12//59 72//59 71//57
f 39//60 99//60 98//58
f 13//61 73//61 72//59
f 40//62 100//62 99//60
f 14//63 74//63 73//61
f 41//2 101//2 100//62
f 15//4 75//4 74//63
